<svg width="40" height="40" viewBox="0 0 32 32" fill="none" xmlns="http://www.w3.org/2000/svg">
<path d="M13.6354 22.917C13.4452 22.917 13.2604 22.8492 13.1146 22.7244L8.38587 18.6711C8.0505 18.3835 8.01162 17.8785 8.29912 17.543C8.58663 17.2077 9.09175 17.169 9.42725 17.4564L13.5188 20.9636L22.4615 9.466C22.7329 9.11737 23.235 9.05413 23.5841 9.32575C23.9328 9.597 23.9956 10.0996 23.7244 10.4484L14.2665 22.6082C14.1321 22.781 13.9331 22.8911 13.7153 22.913C13.6889 22.9156 13.6621 22.917 13.6354 22.917ZM32 16C32 7.1775 24.8225 0 16 0C7.1775 0 0 7.1775 0 16C0 24.8225 7.1775 32 16 32C24.8225 32 32 24.8225 32 16ZM30.4 16C30.4 23.9401 23.9401 30.4 16 30.4C8.05975 30.4 1.6 23.9401 1.6 16C1.6 8.05975 8.05975 1.6 16 1.6C23.9401 1.6 30.4 8.05975 30.4 16Z" fill="black"/>
</svg>
