<svg width="40" height="40" viewBox="0 0 33 33" fill="none" xmlns="http://www.w3.org/2000/svg">
<path d="M20.6997 22.9887C20.5999 22.9887 20.5016 22.9638 20.4134 22.9162L16.2481 20.6779L12.0825 22.9162C11.9809 22.9708 11.8664 22.9953 11.7519 22.9868C11.6374 22.9784 11.5275 22.9374 11.4346 22.8685C11.3417 22.7995 11.2695 22.7054 11.2262 22.5968C11.183 22.4881 11.1703 22.3692 11.1896 22.2536L11.9852 17.5128L8.61512 14.1555C8.53295 14.0736 8.47484 13.9699 8.44735 13.856C8.41986 13.7421 8.42409 13.6226 8.45957 13.5111C8.49505 13.3995 8.56035 13.3003 8.6481 13.2247C8.73585 13.1491 8.84255 13.1001 8.95612 13.0833L13.6136 12.3912L15.6962 8.07838C15.9041 7.64852 16.5921 7.64852 16.8 8.07838L18.8827 12.3912L23.5398 13.0833C23.6534 13.1001 23.7601 13.1491 23.8478 13.2247C23.9356 13.3003 24.0009 13.3995 24.0364 13.5111C24.0718 13.6226 24.0761 13.7421 24.0486 13.856C24.0211 13.9699 23.963 14.0736 23.8808 14.1555L20.5108 17.5128L21.3063 22.2536C21.3214 22.3439 21.317 22.4364 21.2934 22.5247C21.2699 22.6131 21.2278 22.6951 21.17 22.7651C21.1123 22.8351 21.0403 22.8913 20.959 22.9299C20.8778 22.9686 20.7893 22.9886 20.6997 22.9887ZM10.367 14.1445L13.076 16.8434C13.1474 16.9146 13.2008 17.0024 13.2316 17.0993C13.2624 17.1962 13.2698 17.2993 13.253 17.3998L12.6134 21.2103L15.9618 19.411C16.05 19.3632 16.1483 19.3382 16.2481 19.3382C16.3479 19.3382 16.4462 19.3632 16.5344 19.411L19.8825 21.2103L19.2432 17.3998C19.2264 17.2993 19.2338 17.1962 19.2646 17.0993C19.2954 17.0024 19.3488 16.9146 19.4202 16.8434L22.1289 14.1445L18.3854 13.5881C18.2867 13.5734 18.193 13.5345 18.1123 13.4746C18.0316 13.4147 17.9663 13.3356 17.9222 13.2442L16.2481 9.7776L14.574 13.2442C14.5299 13.3356 14.4646 13.4147 14.3839 13.4746C14.3032 13.5345 14.2095 13.5735 14.1108 13.5881L10.367 14.1445Z" fill="black"/>
<path d="M16.2481 27.4796C10.1071 27.4796 5.11108 22.3734 5.11108 16.0973C5.11108 9.82126 10.1071 4.7157 16.2481 4.7157C22.3891 4.7157 27.3851 9.8213 27.3851 16.0974C27.3851 22.3734 22.3891 27.4796 16.2481 27.4796ZM16.2481 5.97333C14.2888 5.97333 12.3735 6.56712 10.7444 7.67961C9.11526 8.7921 7.84553 10.3733 7.09574 12.2233C6.34596 14.0733 6.14979 16.109 6.53206 18.0729C6.91433 20.0369 7.85785 21.8408 9.24332 23.2567C10.6288 24.6726 12.394 25.6369 14.3157 26.0275C16.2373 26.4181 18.2292 26.2176 20.0394 25.4512C21.8495 24.6849 23.3967 23.3872 24.4852 21.7222C25.5737 20.0572 26.1546 18.0998 26.1545 16.0973C26.1515 13.4132 25.1067 10.8399 23.2496 8.94197C21.3924 7.04403 18.8745 5.97639 16.2481 5.97333Z" fill="black"/>
<path d="M19.3155 32.0977C18.933 32.0974 18.5569 31.9963 18.2237 31.8041L16.7344 30.9487C16.5859 30.8635 16.4184 30.8188 16.248 30.8188C16.0777 30.8188 15.9102 30.8635 15.7616 30.9487L14.2714 31.8041C13.7907 32.0816 13.226 32.166 12.6876 32.0406C12.1493 31.9152 11.6761 31.5892 11.3605 31.1262L10.3798 29.6941C10.2811 29.5529 10.1492 29.4395 9.99619 29.3643C9.84322 29.289 9.67417 29.2544 9.50464 29.2636L7.79694 29.3711C7.24619 29.4084 6.70165 29.2341 6.27024 28.8822C5.83883 28.5303 5.5517 28.0263 5.46522 27.4692L5.18971 25.7448C5.16283 25.5726 5.09274 25.4105 4.98627 25.2742C4.8798 25.138 4.74059 25.0323 4.58222 24.9674L3.00071 24.3115C2.48834 24.1007 2.07144 23.7019 1.83165 23.1934C1.59186 22.6849 1.54645 22.1032 1.7043 21.5622L2.18771 19.887C2.23522 19.7203 2.24034 19.544 2.20259 19.3748C2.16484 19.2055 2.08548 19.0489 1.972 18.9198L0.824012 17.6215C0.453282 17.2045 0.247858 16.6612 0.247803 16.0977C0.247747 15.5342 0.453065 14.9909 0.823712 14.5738L1.9723 13.2749C2.08569 13.1456 2.165 12.9889 2.20274 12.8196C2.24048 12.6503 2.23541 12.4739 2.18801 12.3071L1.7043 10.6319C1.54658 10.0909 1.59206 9.50928 1.83183 9.00078C2.07161 8.49228 2.48842 8.09353 3.00071 7.88256L4.58372 7.22609C4.74113 7.16019 4.87947 7.0543 4.98563 6.91846C5.09178 6.78262 5.16224 6.62133 5.19032 6.44987L5.46612 4.72487C5.55245 4.16761 5.83958 3.66349 6.27109 3.31157C6.7026 2.95965 7.24728 2.78538 7.79812 2.823L9.50582 2.93109C9.67557 2.94219 9.84525 2.90834 9.99846 2.83282C10.1517 2.7573 10.2832 2.64267 10.3804 2.5L11.3608 1.06915C11.6762 0.605761 12.1496 0.279453 12.6882 0.154159C13.2268 0.0288652 13.7917 0.113616 14.2724 0.391807L15.7613 1.24663C15.9103 1.33121 16.0778 1.37559 16.2482 1.37559C16.4186 1.37559 16.5861 1.33121 16.7351 1.24663L18.2243 0.391186C18.705 0.113586 19.2697 0.0291656 19.808 0.154429C20.3463 0.279691 20.8196 0.605632 21.1353 1.06854L22.1163 2.50063C22.2139 2.64268 22.3455 2.75682 22.4986 2.83217C22.6516 2.90752 22.821 2.94158 22.9905 2.93111L24.6989 2.82365C25.249 2.78892 25.7922 2.96427 26.2231 3.31568C26.6539 3.6671 26.9417 4.16952 27.0306 4.72551L27.3063 6.45051C27.3344 6.62206 27.4048 6.78345 27.511 6.9194C27.6171 7.05535 27.7555 7.16134 27.9129 7.22734L29.495 7.88319C30.0075 8.09407 30.4246 8.49289 30.6644 9.00154C30.9043 9.5102 30.9497 10.092 30.7917 10.6331L30.3083 12.3078C30.2608 12.4744 30.2556 12.6507 30.2933 12.8199C30.331 12.9892 30.4103 13.1458 30.5237 13.275L31.6717 14.5732C32.0424 14.9903 32.2477 15.5335 32.2478 16.097C32.2479 16.6605 32.0426 17.2037 31.672 17.6209L30.5241 18.9197C30.4105 19.049 30.3311 19.2057 30.2933 19.375C30.2555 19.5444 30.2606 19.7208 30.3081 19.8876L30.7915 21.5628C30.9494 22.1038 30.904 22.6855 30.6642 23.194C30.4244 23.7026 30.0075 24.1013 29.4951 24.3121L27.9123 24.9686C27.7548 25.0345 27.6164 25.1405 27.5102 25.2765C27.404 25.4124 27.3335 25.5738 27.3054 25.7454L27.0299 27.4698C26.9416 28.0262 26.6539 28.5291 26.2228 28.8806C25.7917 29.2322 25.248 29.4072 24.6976 29.3717L22.9905 29.2642C22.8207 29.2533 22.6509 29.2872 22.4976 29.3627C22.3443 29.4382 22.2125 29.5528 22.115 29.6953L21.1353 31.1255C20.9311 31.4255 20.659 31.6706 20.3421 31.8398C20.0253 32.0091 19.6731 32.0976 19.3155 32.0977ZM16.248 29.5627C16.6295 29.5621 17.0047 29.6617 17.3377 29.8519L18.8267 30.7073C19.0413 30.8318 19.2937 30.8697 19.5343 30.8137C19.7749 30.7577 19.9863 30.6118 20.127 30.4046L21.1071 28.9737C21.3269 28.6563 21.622 28.4013 21.9648 28.2325C22.3075 28.0638 22.6867 27.9868 23.0665 28.009L24.7736 28.1165C25.0197 28.1334 25.2631 28.0557 25.4559 27.8985C25.6487 27.7413 25.777 27.5161 25.8156 27.2672L26.0911 25.5428C26.1538 25.1585 26.3115 24.797 26.5492 24.4926C26.787 24.1881 27.0969 23.9507 27.4497 23.803L29.0321 23.1466C29.2609 23.0525 29.4471 22.8745 29.5543 22.6474C29.6614 22.4203 29.6818 22.1606 29.6113 21.919L29.1279 20.2437C29.0215 19.8703 29.01 19.4754 29.0945 19.0961C29.1791 18.7169 29.3568 18.366 29.611 18.0766L30.7587 16.7784L30.759 16.7777C30.9245 16.5913 31.0161 16.3486 31.0161 16.097C31.016 15.8453 30.9243 15.6026 30.7587 15.4163L29.611 14.1187C29.3569 13.8293 29.1791 13.4784 29.0947 13.0991C29.0102 12.7199 29.0217 12.325 29.1282 11.9516L29.6116 10.2769C29.6821 10.0352 29.6618 9.77533 29.5546 9.54814C29.4474 9.32095 29.2611 9.14286 29.0321 9.04876L27.4503 8.39289C27.0976 8.24522 26.7877 8.00788 26.5499 7.70339C26.3122 7.39891 26.1546 7.0374 26.092 6.65316L25.8162 4.92816C25.7755 4.68036 25.6467 4.45664 25.4545 4.2999C25.2623 4.14317 25.0203 4.06446 24.7748 4.07886L23.0665 4.18633C22.6867 4.20996 22.3073 4.13375 21.9645 3.96498C21.6217 3.7962 21.3269 3.54049 21.1083 3.22222L20.1273 1.7901C19.9862 1.58353 19.7749 1.43808 19.5345 1.38211C19.2942 1.32614 19.042 1.36366 18.8273 1.48736L17.3374 2.34342C17.0044 2.5331 16.6294 2.63266 16.2482 2.63266C15.8669 2.63266 15.492 2.5331 15.1589 2.34342L13.6693 1.48797C13.4546 1.36374 13.2023 1.32591 12.9617 1.38192C12.7211 1.43792 12.5096 1.5837 12.3688 1.79072L11.3887 3.22095C11.1704 3.53979 10.8757 3.79601 10.5328 3.96504C10.1898 4.13408 9.81016 4.21027 9.43014 4.18631L7.72183 4.07823C7.47641 4.06399 7.23447 4.14277 7.04233 4.29947C6.8502 4.45618 6.72137 4.6798 6.68051 4.92753L6.4047 6.65253C6.342 7.03666 6.18432 7.39804 5.9466 7.70241C5.70889 8.00678 5.39903 8.24403 5.04642 8.39165L3.46369 9.04813C3.23487 9.14242 3.04869 9.32055 2.94157 9.54769C2.83444 9.77483 2.81407 10.0346 2.88444 10.2763L3.36815 11.951C3.4745 12.3243 3.48597 12.7193 3.4015 13.0985C3.31702 13.4776 3.13938 13.8286 2.88534 14.1181L1.73675 15.4169C1.57131 15.6032 1.47965 15.8458 1.47965 16.0973C1.47965 16.3489 1.57131 16.5915 1.73675 16.7778L2.88474 18.076C3.13893 18.3654 3.3167 18.7163 3.40124 19.0955C3.48577 19.4747 3.47428 19.8697 3.36784 20.2431L2.88444 21.9184C2.814 22.16 2.83434 22.4197 2.94148 22.6468C3.04863 22.8739 3.23485 23.0519 3.46368 23.146L5.04548 23.8018C5.39815 23.9497 5.70803 24.1872 5.94578 24.4918C6.18353 24.7963 6.34127 25.1579 6.40407 25.5422L6.67957 27.2666C6.71954 27.5147 6.84814 27.7389 7.04048 27.8958C7.23283 28.0527 7.47527 28.1311 7.7209 28.1159L9.42921 28.0084C9.80921 27.9836 10.189 28.0594 10.5321 28.2282C10.8751 28.3971 11.1698 28.6534 11.3878 28.9725L12.3684 30.4046C12.5092 30.6117 12.7206 30.7576 12.9611 30.8136C13.2017 30.8696 13.4541 30.8317 13.6687 30.7073L15.1586 29.8519C15.4915 29.6617 15.8666 29.5621 16.248 29.5627Z" fill="black"/>
</svg>
