<svg width="40" height="40" viewBox="0 0 33 33" fill="none" xmlns="http://www.w3.org/2000/svg">
<path d="M0.800049 5.61166V6.10346C0.800049 16.5679 6.37738 26.449 15.3567 31.89L16.8 32.764L18.2434 31.8893C27.2227 26.449 32.8 16.5679 32.8 6.10346V5.61166L16.8 0.764038L0.800049 5.61166ZM17.5507 30.7564L16.8 31.211L16.0494 30.7564C7.60605 25.6393 2.30872 16.4159 2.13805 6.59393L16.8 2.15116L31.462 6.59326C31.2914 16.4159 25.994 25.6393 17.5507 30.7564Z" fill="black"/>
<path d="M10.6048 16.917L9.66211 17.8554L14.8001 22.9705L27.9381 9.8911L26.9954 8.95264L14.8001 21.0936L10.6048 16.917Z" fill="black"/>
</svg>
